Coordinates
version=1
nRows=6
nColumns=36
inDegrees=yes

Units are S.I. units (second, meters, Newtons, ...)
If the header above contains a line with 'inDegrees', this indicates whether rotational values are in degrees (yes) or radians (no).

endheader
time	pelvis_tilt	pelvis_list	pelvis_rotation	pelvis_tx	pelvis_ty	pelvis_tz	hip_flexion_r	hip_adduction_r	hip_rotation_r	knee_angle_r	knee_angle_r_beta	ankle_angle_r	subtalar_angle_r	mtp_angle_r	hip_flexion_l	hip_adduction_l	hip_rotation_l	knee_angle_l	knee_angle_l_beta	ankle_angle_l	subtalar_angle_l	mtp_angle_l	lumbar_extension	lumbar_bending	lumbar_rotation	arm_flex_r	arm_add_r	arm_rot_r	elbow_flex_r	pro_sup_r	arm_flex_l	arm_add_l	arm_rot_l	elbow_flex_l	pro_sup_l
      2.55000000	    -34.34562049	     10.35845689	     -3.47991464	      0.45431220	      0.67654051	     -0.11982262	    103.93360589	    -20.26727612	     10.64270771	     89.63250052	      1.56438225	     32.79820092	     12.08456515	     -7.49999987	    101.65081488	    -10.53098327	     -4.03466855	     92.46292573	      1.61378249	     21.84314860	     -8.24759360	     -7.49999987	    -40.25947504	     -0.20794414	     -3.34278718	    102.45680516	    -23.65956836	     22.41465490	    127.71745248	     99.21474402	    110.73437650	    -15.38395762	     30.72858977	    118.91117850	     97.65896905
      2.56666670	    -35.01963772	     10.72917792	     -3.40946902	      0.45484142	      0.69758999	     -0.11586084	    100.85439493	    -20.34416473	     10.80835749	     85.92144305	      1.49961208	     33.12742921	     12.14422239	     -7.49999987	     98.45515885	     -9.80017426	     -5.02999494	     89.01077871	      1.55353116	     22.75727379	     -8.45347321	     -7.49999987	    -38.12884304	     -0.20543080	     -2.40492234	    100.97272607	    -27.16981755	     24.87382566	    130.69275950	     97.36522502	    108.46192566	    -17.35953313	     33.37260700	    122.17955390	     96.12447320
      2.58333330	    -34.16242206	     10.96477597	     -3.58405879	      0.44472069	      0.71283934	     -0.11216358	     98.18927554	    -19.92842282	     10.55127171	     83.48105561	      1.45701928	     32.12209103	     11.47982073	     -7.49999987	     94.68178266	     -9.03046274	     -5.57609150	     85.97158810	      1.50048728	     23.12594829	     -8.45814120	     -7.49999987	    -37.50419097	     -0.51511540	     -1.67832071	    101.17903670	    -30.91080455	     27.45819217	    132.29832908	     92.54417200	    108.47254027	    -20.21391667	     36.27776631	    123.84366362	     91.68433421
      2.60000000	    -34.58607289	     10.82253890	     -3.42263514	      0.46956473	      0.73320440	     -0.09930528	     94.18738570	    -19.33855739	      9.99947645	     79.77096620	      1.39226601	     33.19306121	     10.56332225	     -7.49999987	     91.18285837	     -8.78649109	     -5.51049105	     81.86759981	      1.42885917	     23.22040568	     -8.53801855	     -7.49999987	    -34.79051228	     -1.01771789	     -1.13543129	     97.46118716	    -36.10284199	     30.04404311	    137.16443447	     92.57154025	    107.19897083	    -25.04358229	     41.09530326	    128.10253948	     92.25004626
      2.61666670	    -33.46539462	     10.73645263	     -3.41307107	      0.48193818	      0.76023047	     -0.09711582	     89.65793298	    -18.73766027	      9.18792493	     76.72570577	      1.33911619	     32.45693592	      8.13528921	     -7.49999987	     86.34172740	     -8.56408488	     -5.94299011	     77.98137390	      1.36103173	     23.07148655	     -7.47809898	     -7.49999987	    -33.40730362	     -2.23910069	     -0.39646448	     87.20440446	    -43.06133597	     26.50765441	    142.76112183	     93.94115436	    107.37536737	    -27.82277467	     47.14630647	    129.66155230	     94.70129505
      2.63333330	    -33.25954910	     10.42739162	     -3.62580546	      0.46878225	      0.76277738	     -0.08892184	     86.59679660	    -17.48702860	      8.96948477	     73.73615465	      1.28693868	     32.68282982	      6.62269978	     -7.49999987	     83.91364521	     -9.04041232	     -5.84550346	     75.05990226	      1.31004243	     22.99567123	     -7.53866278	     -7.49999987	    -30.94369529	     -3.49309038	     -0.16322319	     77.33776927	    -48.75612346	     19.90884214	    145.54951881	     90.84495124	    109.07097804	    -31.84931838	     51.36165246	    130.70658904	     92.46448107
